<?xml version="1.0" encoding="UTF-8" standalone="no"?>
<svg
   xmlns:dc="http://purl.org/dc/elements/1.1/"
   xmlns:cc="http://creativecommons.org/ns#"
   xmlns:rdf="http://www.w3.org/1999/02/22-rdf-syntax-ns#"
   xmlns:svg="http://www.w3.org/2000/svg"
   xmlns="http://www.w3.org/2000/svg"
   viewBox="0 0 79.44133 51.777332"
   height="51.777332"
   width="79.44133"
   xml:space="preserve"
   id="svg2"
   version="1.1"><metadata
     id="metadata8"><rdf:RDF><cc:Work
         rdf:about=""><dc:format>image/svg+xml</dc:format><dc:type
           rdf:resource="http://purl.org/dc/dcmitype/StillImage" /></cc:Work></rdf:RDF></metadata><defs
     id="defs6" /><g
     transform="matrix(1.3333333,0,0,-1.3333333,0,51.777333)"
     id="g10"><g
       transform="translate(30.007,30.007)"
       id="g12"><g
         id="g14"><g
           id="g16"><g
             id="g18"><g
               id="g20"><g
                 id="g22"><g
                   transform="translate(2.14697,-2.14697)"
                   id="g24"><path
                     id="path26"
                     style="fill:#808080;fill-opacity:0.5;fill-rule:nonzero;stroke:none"
                     d="M 8.62743,0 C 8.62743,4.76485 4.76485,8.62743 0,8.62743 -4.76485,8.62743 -8.62743,4.76485 -8.62743,0 c 0,-4.76485 3.86258,-8.62743 8.62743,-8.62743 4.76485,0 8.62743,3.86258 8.62743,8.62743 z" /></g></g></g><g
               id="g28"><path
                 id="path30"
                 style="fill:#ff0000;fill-opacity:1;fill-rule:nonzero;stroke:#ffffff;stroke-width:0.3985;stroke-linecap:butt;stroke-linejoin:miter;stroke-miterlimit:10;stroke-dasharray:none;stroke-opacity:1"
                 d="M 8.62743,0 C 8.62743,4.76485 4.76485,8.62743 0,8.62743 -4.76485,8.62743 -8.62743,4.76485 -8.62743,0 c 0,-4.76485 3.86258,-8.62743 8.62743,-8.62743 4.76485,0 8.62743,3.86258 8.62743,8.62743 z" /></g><g
               transform="translate(-2.017,-3.453)"
               id="g32"><g
                 id="g34"><g
                   transform="translate(-27.99,-26.554)"
                   id="g36"><text
                     id="text40"
                     style="font-variant:normal;font-weight:normal;font-size:9.96263981px;font-family:CMMIB10;-inkscape-font-specification:CMMIB10;writing-mode:lr-tb;fill:#ffffff;fill-opacity:1;fill-rule:nonzero;stroke:none"
                     transform="matrix(1,0,0,-1,27.99,26.554)"><tspan
                       id="tspan38"
                       y="0"
                       x="0">i</tspan></text>
<g
                     transform="translate(27.99,26.554)"
                     id="g42" /></g></g><g
                 transform="translate(2.017,3.453)"
                 id="g44" /></g></g><g
             id="g46"><g
               id="g48"><g
                 id="g50"><g
                   transform="translate(2.14697,-2.14697)"
                   id="g52"><path
                     id="path54"
                     style="fill:#808080;fill-opacity:0.5;fill-rule:nonzero;stroke:none"
                     d="m -10.28043,-20.04422 c 0,5.39246 -4.37133,9.76379 -9.76379,9.76379 -5.39247,0 -9.76381,-4.37133 -9.76381,-9.76379 0,-5.39247 4.37134,-9.76381 9.76381,-9.76381 5.39246,0 9.76379,4.37134 9.76379,9.76381 z" /></g></g></g><g
               id="g56"><path
                 id="path58"
                 style="fill:#000000;fill-opacity:1;fill-rule:nonzero;stroke:#ffffff;stroke-width:0.3985;stroke-linecap:butt;stroke-linejoin:miter;stroke-miterlimit:10;stroke-dasharray:none;stroke-opacity:1"
                 d="m -10.28043,-20.04422 c 0,5.39246 -4.37133,9.76379 -9.76379,9.76379 -5.39247,0 -9.76381,-4.37133 -9.76381,-9.76379 0,-5.39247 4.37134,-9.76381 9.76381,-9.76381 5.39246,0 9.76379,4.37134 9.76379,9.76381 z" /></g><g
               transform="translate(-22.699,-22.529)"
               id="g60"><g
                 id="g62"><g
                   transform="translate(-7.308,-7.478)"
                   id="g64"><text
                     id="text68"
                     style="font-variant:normal;font-weight:normal;font-size:9.96263981px;font-family:CMMIB10;-inkscape-font-specification:CMMIB10;writing-mode:lr-tb;fill:#ffffff;fill-opacity:1;fill-rule:nonzero;stroke:none"
                     transform="matrix(1,0,0,-1,7.308,7.478)"><tspan
                       id="tspan66"
                       y="0"
                       x="0">j</tspan></text>
<g
                     transform="translate(7.308,7.478)"
                     id="g70" /></g></g><g
                 transform="translate(22.699,22.529)"
                 id="g72" /></g></g><g
             id="g74"><g
               id="g76"><g
                 id="g78"><g
                   transform="translate(2.14697,-2.14697)"
                   id="g80"><path
                     id="path82"
                     style="fill:#808080;fill-opacity:0.5;fill-rule:nonzero;stroke:none"
                     d="m 29.37556,-20.04422 c 0,5.15361 -4.17771,9.33133 -9.33134,9.33133 -5.15361,0 -9.33133,-4.17772 -9.33133,-9.33133 0,-5.15363 4.17772,-9.33134 9.33133,-9.33134 5.15363,0 9.33134,4.17771 9.33134,9.33134 z" /></g></g></g><g
               id="g84"><path
                 id="path86"
                 style="fill:#000000;fill-opacity:1;fill-rule:nonzero;stroke:#ffffff;stroke-width:0.3985;stroke-linecap:butt;stroke-linejoin:miter;stroke-miterlimit:10;stroke-dasharray:none;stroke-opacity:1"
                 d="m 29.37556,-20.04422 c 0,5.15361 -4.17771,9.33133 -9.33134,9.33133 -5.15361,0 -9.33133,-4.17772 -9.33133,-9.33133 0,-5.15363 4.17772,-9.33134 9.33133,-9.33134 5.15363,0 9.33134,4.17771 9.33134,9.33134 z" /></g><g
               transform="translate(16.944,-23.503)"
               id="g88"><g
                 id="g90"><g
                   transform="translate(-46.951,-6.504)"
                   id="g92"><text
                     id="text96"
                     style="font-variant:normal;font-weight:normal;font-size:9.96263981px;font-family:CMMIB10;-inkscape-font-specification:CMMIB10;writing-mode:lr-tb;fill:#ffffff;fill-opacity:1;fill-rule:nonzero;stroke:none"
                     transform="matrix(1,0,0,-1,46.951,6.504)"><tspan
                       id="tspan94"
                       y="0"
                       x="0">k</tspan></text>
<g
                     transform="translate(46.951,6.504)"
                     id="g98" /></g></g><g
                 transform="translate(-16.944,23.503)"
                 id="g100" /></g></g><g
             id="g102"><path
               id="path104"
               style="fill:none;stroke:#000000;stroke-width:1.59404004;stroke-linecap:butt;stroke-linejoin:miter;stroke-miterlimit:10;stroke-dasharray:none;stroke-opacity:1"
               d="m -6.2414,-6.2414 -6.75788,-6.75788 m 19.24068,6.75788 7.06368,-7.06368" /></g></g></g></g></g></svg>